<?xml version="1.0" encoding="UTF-8"?>
<svg width="24px" height="24px" viewBox="0 0 24 24" version="1.1" xmlns="http://www.w3.org/2000/svg" xmlns:xlink="http://www.w3.org/1999/xlink">
    <!-- Generator: Sketch 59 (86127) - https://sketch.com -->
    <title>_Icons / Messaging / Alert</title>
    <desc>Created with Sketch.</desc>
    <defs>
        <path d="M12.012432,15.67992 C12.893712,15.67464 13.501872,15.0828 13.495152,14.23464 C13.489392,13.3932 12.865392,12.80376 11.987472,12.81 C11.119152,12.81576 10.496112,13.4244 10.504272,14.25912 C10.513392,15.1188 11.113872,15.68472 12.012432,15.67992 M12.055632,3.76582017 C10.214832,3.76392 10.107312,3.89784 10.312752,5.72616 C10.471632,7.13976 10.603632,8.5572 10.728912,9.97464 C10.796592,10.73688 11.033232,11.23464 11.943792,11.25144 C12.881232,11.26968 13.200432,10.81464 13.271472,9.97896 C13.398672,8.49 13.570032,7.00488 13.700592,5.5164 C13.845072,3.86376 13.744272,3.76728 12.055632,3.76582017 M7.502352,19.49544 C5.954832,19.49544 4.534992,19.50408 3.115152,19.49304 C1.316592,19.4796 0.014352,18.19992 0.009552,16.4076 C-0.002448,11.94984 -0.003888,7.4916 0.010032,3.03384 C0.015792,1.31112 1.326672,0.01224 3.066672,0.00888 C9.022512,-0.00312 14.978352,-0.00312 20.934192,0.00888 C22.673232,0.01224 23.984112,1.3116 23.989872,3.03432 C24.003792,7.49256 24.002352,11.95032 23.990352,16.40856 C23.985552,18.2004 22.682832,19.48248 20.883792,19.49256 C18.958512,19.50408 17.031312,19.45944 15.106992,19.51944 C14.584752,19.53576 13.994352,19.73304 13.568112,20.03496 C11.942352,21.18888 10.378512,22.43064 8.768592,23.60904 C8.512272,23.79624 8.041872,23.99256 7.845552,23.88024 C7.626672,23.75448 7.527792,23.2836 7.516752,22.95768 C7.478832,21.85656 7.502352,20.75352 7.502352,19.49544" id="path-1"></path>
    </defs>
    <g id="_Icons-/-Messaging-/-Alert" stroke="none" stroke-width="1" fill="none" fill-rule="evenodd">
        <mask id="mask-2" fill="white">
            <use xlink:href="#path-1"></use>
        </mask>
        <use id="Fill-1" fill="#000000" xlink:href="#path-1"></use>
        <g id="_Placeholders-/-Color" mask="url(#mask-2)"></g>
    </g>
</svg>