<?xml version="1.0" encoding="UTF-8"?>
<svg width="24px" height="24px" viewBox="0 0 24 24" version="1.1" xmlns="http://www.w3.org/2000/svg" xmlns:xlink="http://www.w3.org/1999/xlink">
    <!-- Generator: Sketch 59 (86127) - https://sketch.com -->
    <title>_Icons /  Menus / Hamburger Menu</title>
    <desc>Created with Sketch.</desc>
    <g id="_Icons-/--Menus-/-Hamburger-Menu" stroke="none" stroke-width="1" fill="none" fill-rule="evenodd">
        <path d="M0.85728,22 L23.1432,22 C23.61648,22 24,21.616 24,21.14272 L24,19 C24,18.52672 23.61648,18.14272 23.1432,18.14272 L0.85728,18.14272 C0.384,18.14272 0,18.52672 0,19 L0,21.14272 C0,21.616 0.384,22 0.85728,22 M0.85728,13.42864 L23.1432,13.42864 C23.61648,13.42864 24,13.04512 24,12.57136 L24,10.42864 C24,9.95536 23.61648,9.57136 23.1432,9.57136 L0.85728,9.57136 C0.384,9.57136 0,9.95536 0,10.42864 L0,12.57136 C0,13.04512 0.384,13.42864 0.85728,13.42864 M0.85728,4.85728 L23.1432,4.85728 C23.61648,4.85728 24,4.47328 24,4 L24,1.85728 C24,1.38352 23.61648,1 23.1432,1 L0.85728,1 C0.384,1 0,1.38352 0,1.85728 L0,4 C0,4.47328 0.384,4.85728 0.85728,4.85728" id="Fill-1" fill="#000000"></path>
        <g id="_Placeholders-/-Color"></g>
    </g>
</svg>