<?xml version="1.0" encoding="UTF-8"?>
<svg width="24px" height="24px" viewBox="0 0 24 24" version="1.1" xmlns="http://www.w3.org/2000/svg" xmlns:xlink="http://www.w3.org/1999/xlink">
    <!-- Generator: Sketch 59 (86127) - https://sketch.com -->
    <title>_Icons / UI / Search</title>
    <desc>Created with Sketch.</desc>
    <defs>
        <path d="M9.749136,15.748608 C6.435216,15.748608 3.749616,13.067328 3.749616,9.749088 C3.749616,6.435168 6.430416,3.749568 9.749136,3.749568 C13.062576,3.749568 15.748656,6.430368 15.748656,9.749088 C15.748656,13.062528 13.067376,15.748608 9.749136,15.748608 M23.669616,20.749728 L18.996816,16.076928 C18.785616,15.865728 18.499536,15.748608 18.199536,15.748608 L17.435856,15.748608 C18.729456,14.094048 19.498416,12.012768 19.498416,9.749088 C19.498416,4.363488 15.134736,-0.000192 9.749136,-0.000192 C4.363536,-0.000192 -0.000144,4.363488 -0.000144,9.749088 C-0.000144,15.134688 4.363536,19.498368 9.749136,19.498368 C12.012816,19.498368 14.094096,18.729408 15.748656,17.435808 L15.748656,18.199488 C15.748656,18.499488 15.865776,18.785568 16.076496,18.996768 L20.749776,23.669568 C21.189936,24.110208 21.902256,24.110208 22.338576,23.669568 L23.664816,22.342848 C24.105456,21.902208 24.105456,21.190368 23.669616,20.749728" id="path-1"></path>
    </defs>
    <g id="_Icons-/-UI-/-Search" stroke="none" stroke-width="1" fill="none" fill-rule="evenodd">
        <mask id="mask-2" fill="white">
            <use xlink:href="#path-1"></use>
        </mask>
        <use id="Fill-1" fill="#000000" xlink:href="#path-1"></use>
        <g id="_Placeholders-/-Color" mask="url(#mask-2)"></g>
    </g>
</svg>