<?xml version="1.0" encoding="UTF-8"?>
<svg width="24px" height="24px" viewBox="0 0 24 24" version="1.1" xmlns="http://www.w3.org/2000/svg" xmlns:xlink="http://www.w3.org/1999/xlink">
    <!-- Generator: Sketch 59 (86127) - https://sketch.com -->
    <title>_Icons / Stopwatch</title>
    <desc>Created with Sketch.</desc>
    <defs>
        <path d="M13.50024,15.93744 L13.50024,8.83584 C13.50024,8.52672 13.24728,8.27328 12.93768,8.27328 L11.0628,8.27328 C10.7532,8.27328 10.50024,8.52672 10.50024,8.83584 L10.50024,15.93744 C10.50024,16.24704 10.7532,16.5 11.0628,16.5 L12.93768,16.5 C13.24728,16.5 13.50024,16.24704 13.50024,15.93744 M21.75,14.24976 C21.75,19.63584 17.38632,24 12.00024,24 C6.61416,24 2.25,19.63584 2.25,14.24976 C2.25,9.37488 5.82696,5.33424 10.50024,4.61712 L10.50024,3 L9.18792,3 C8.87832,3 8.62536,2.74704 8.62536,2.43744 L8.62536,0.56256 C8.62536,0.25296 8.87832,0 9.18792,0 L14.81256,0 C15.12216,0 15.37512,0.25296 15.37512,0.56256 L15.37512,2.43744 C15.37512,2.74704 15.12216,3 14.81256,3 L13.50024,3 L13.50024,4.61712 C15.258,4.8888 16.8612,5.62944 18.17352,6.70752 L19.4628,5.41872 C19.68312,5.1984 20.03928,5.1984 20.2596,5.41872 L21.58632,6.74544 C21.80664,6.96576 21.80664,7.32192 21.58632,7.54224 L20.20824,8.92032 L20.17992,8.94816 C21.17352,10.46736 21.75,12.2904 21.75,14.24976" id="path-1"></path>
    </defs>
    <g id="_Icons-/-Stopwatch" stroke="none" stroke-width="1" fill="none" fill-rule="evenodd">
        <mask id="mask-2" fill="white">
            <use xlink:href="#path-1"></use>
        </mask>
        <use id="Fill-1" fill="#000000" xlink:href="#path-1"></use>
        <g id="_Placeholders-/-Color" mask="url(#mask-2)"></g>
    </g>
</svg>